<svg xmlns="http://www.w3.org/2000/svg" version="1.1" xmlns:xlink="http://www.w3.org/1999/xlink" xmlns:svgjs="http://svgjs.com/svgjs" width="1980" height="500" preserveAspectRatio="none" viewBox="0 0 1980 500"><g mask="url(&quot;#SvgjsMask1020&quot;)" fill="none"><path d="M41.64251106254414 566.337816711258L113.8381929048665 513.8845835144664 61.38495970807487 441.688901672144-10.810722134247492 494.14213486893567z" fill="rgba(28, 83, 142, 0.4)" class="triangle-float2"></path><path d="M1703.929,534.589C1740.683,534.76,1780.931,530.679,1800.709,499.7C1821.66,466.884,1817.42,423.152,1795.706,390.836C1776.122,361.69,1739.022,356.87,1703.929,355.668C1665.65,354.357,1621.791,352.264,1600.575,384.152C1577.829,418.341,1585.444,464.959,1608.697,498.805C1629.278,528.761,1667.584,534.42,1703.929,534.589" fill="rgba(28, 83, 142, 0.4)" class="triangle-float1"></path><path d="M1284.8526000550196 243.53607217178603L1402.4558403164956 198.39241783177636 1357.3121859764858 80.78917757030047 1239.70894571501 125.93283191031013z" fill="rgba(28, 83, 142, 0.4)" class="triangle-float1"></path><path d="M1491.1872186646592 483.5301470038123L1627.296488327338 497.83580770427784 1641.6021490278035 361.726538041599 1505.4928793651247 347.4208773411334z" fill="rgba(28, 83, 142, 0.4)" class="triangle-float2"></path><path d="M188.4009428070238 26.835046256221247L156.0936760022767-42.44811098930761 86.81051875674785-10.140844184560521 119.11778556149494 59.142313060968334z" fill="rgba(28, 83, 142, 0.4)" class="triangle-float1"></path><path d="M1559.534,85.796C1583,87.436,1609.562,86.275,1622.53,66.65C1636.457,45.574,1631.931,17.646,1618.847,-3.964C1606.249,-24.771,1583.846,-38.14,1559.534,-37.392C1536.383,-36.68,1516.804,-21.104,1506.224,-0.5C1496.526,18.386,1498.982,40.735,1510.14,58.797C1520.71,75.906,1539.472,84.394,1559.534,85.796" fill="rgba(28, 83, 142, 0.4)" class="triangle-float1"></path><path d="M1839.166,36.035C1856.595,36.344,1871.904,24.496,1879.731,8.92C1886.843,-5.233,1882.735,-21.366,1874.937,-35.153C1866.985,-49.212,1855.311,-62.342,1839.166,-62.801C1822.381,-63.279,1807.693,-52.054,1799.686,-37.294C1792.048,-23.213,1793.424,-6.581,1801.018,7.524C1809.084,22.506,1822.154,35.733,1839.166,36.035" fill="rgba(28, 83, 142, 0.4)" class="triangle-float2"></path><path d="M167.405,402.296C198.147,401.246,230.457,393.653,245.981,367.098C261.62,340.347,254.562,307.184,238.497,280.687C223.089,255.274,197.123,237.679,167.405,237.495C137.377,237.309,111.204,254.663,94.772,279.797C76.328,308.009,61.755,343.811,78.946,372.804C95.937,401.46,134.11,403.433,167.405,402.296" fill="rgba(28, 83, 142, 0.4)" class="triangle-float2"></path><path d="M740.2415694603939 416.66280564758017L630.6510792814831 376.77512926381405 590.763402897717 486.36561944272484 700.3538930766277 526.2532958264909z" fill="rgba(28, 83, 142, 0.4)" class="triangle-float2"></path></g><defs><mask id="SvgjsMask1020"><rect width="1980" height="500" fill="#ffffff"></rect></mask><style>
            @keyframes float1 {
                0%{transform: translate(0, 0)}
                50%{transform: translate(-10px, 0)}
                100%{transform: translate(0, 0)}
            }

            .triangle-float1 {
                animation: float1 5s infinite;
            }

            @keyframes float2 {
                0%{transform: translate(0, 0)}
                50%{transform: translate(-5px, -5px)}
                100%{transform: translate(0, 0)}
            }

            .triangle-float2 {
                animation: float2 4s infinite;
            }

            @keyframes float3 {
                0%{transform: translate(0, 0)}
                50%{transform: translate(0, -10px)}
                100%{transform: translate(0, 0)}
            }

            .triangle-float3 {
                animation: float3 6s infinite;
            }
        </style></defs></svg>