<svg id="visual" viewBox="0 0 1980 800" width="1980" height="800" xmlns="http://www.w3.org/2000/svg" xmlns:xlink="http://www.w3.org/1999/xlink" version="1.1"><rect x="0" y="0" width="1980" height="800" fill="#001220"></rect><path d="M694 800L713 733.3C732 666.7 770 533.3 831.3 400C892.7 266.7 977.3 133.3 1019.7 66.7L1062 0L1980 0L1980 66.7C1980 133.3 1980 266.7 1980 400C1980 533.3 1980 666.7 1980 733.3L1980 800Z" fill="#5024c7"></path><path d="M1111 800L1157.7 733.3C1204.3 666.7 1297.7 533.3 1332.5 400C1367.3 266.7 1343.7 133.3 1331.8 66.7L1320 0L1980 0L1980 66.7C1980 133.3 1980 266.7 1980 400C1980 533.3 1980 666.7 1980 733.3L1980 800Z" fill="#0079f4"></path><path d="M1467 800L1480.3 733.3C1493.7 666.7 1520.3 533.3 1539.8 400C1559.3 266.7 1571.7 133.3 1577.8 66.7L1584 0L1980 0L1980 66.7C1980 133.3 1980 266.7 1980 400C1980 533.3 1980 666.7 1980 733.3L1980 800Z" fill="#00b7ff"></path><path d="M1706 800L1703.2 733.3C1700.3 666.7 1694.7 533.3 1684 400C1673.3 266.7 1657.7 133.3 1649.8 66.7L1642 0L1980 0L1980 66.7C1980 133.3 1980 266.7 1980 400C1980 533.3 1980 666.7 1980 733.3L1980 800Z" fill="#69e8fa"></path></svg>