<svg width="1980.0000000000002" height="800" xmlns="http://www.w3.org/2000/svg" version="1.1">

 <g>
  <title>Layer 1</title>
  <path id="svg_2" fill="#fa9eff" d="m1298,0l-28.2,22.2c-28.1,22.1 -84.5,66.5 -141.5,111c-57,44.5 -114.6,89.1 -167.5,133.6c-52.8,44.5 -100.8,88.9 -104,133.2c-3.1,44.3 38.5,88.7 92.9,133.2c54.3,44.5 121.3,89.1 131.6,133.6c10.4,44.5 -36,88.9 -59.1,111l-23.2,22.2l-999,0l0,-22.2c0,-22.1 0,-66.5 0,-111c0,-44.5 0,-89.1 0,-133.6c0,-44.5 0,-88.9 0,-133.2c0,-44.3 0,-88.7 0,-133.2c0,-44.5 0,-89.1 0,-133.6c0,-44.5 0,-88.9 0,-111l0,-22.2l1298,0z"/>
  <path id="svg_3" fill="#f77cfc" d="m869,0l6.5,22.2c6.5,22.1 19.5,66.5 11.5,111c-8,44.5 -37,89.1 -65.3,133.6c-28.4,44.5 -56,88.9 -83.7,133.2c-27.7,44.3 -55.3,88.7 -49.7,133.2c5.7,44.5 44.7,89.1 98.9,133.6c54.1,44.5 123.5,88.9 158.1,111l34.7,22.2l-980,0l0,-22.2c0,-22.1 0,-66.5 0,-111c0,-44.5 0,-89.1 0,-133.6c0,-44.5 0,-88.9 0,-133.2c0,-44.3 0,-88.7 0,-133.2c0,-44.5 0,-89.1 0,-133.6c0,-44.5 0,-88.9 0,-111l0,-22.2l869,0z"/>
  <path id="svg_4" fill="#e35de6" d="m547,0l-22.8,22.2c-22.9,22.1 -68.5,66.5 -89.7,111c-21.2,44.5 -17.8,89.1 -19.2,133.6c-1.3,44.5 -7.3,88.9 5.7,133.2c13,44.3 45,88.7 76.8,133.2c31.9,44.5 63.5,89.1 89.4,133.6c25.8,44.5 45.8,88.9 55.8,111l10,22.2l-653,0l0,-22.2c0,-22.1 0,-66.5 0,-111c0,-44.5 0,-89.1 0,-133.6c0,-44.5 0,-88.9 0,-133.2c0,-44.3 0,-88.7 0,-133.2c0,-44.5 0,-89.1 0,-133.6c0,-44.5 0,-88.9 0,-111l0,-22.2l547,0z"/>
  <path id="svg_5" fill="#bd47c0" d="m242,0l13.7,22.2c13.6,22.1 41,66.5 57.5,111c16.5,44.5 22.1,89.1 1.3,133.6c-20.8,44.5 -68.2,88.9 -74,133.2c-5.8,44.3 29.8,88.7 41.8,133.2c12,44.5 0.4,89.1 19,133.6c18.7,44.5 67.7,88.9 92.2,111l24.5,22.2l-418,0l0,-22.2c0,-22.1 0,-66.5 0,-111c0,-44.5 0,-89.1 0,-133.6c0,-44.5 0,-88.9 0,-133.2c0,-44.3 0,-88.7 0,-133.2c0,-44.5 0,-89.1 0,-133.6c0,-44.5 0,-88.9 0,-111l0,-22.2l242,0z"/>
  <path id="svg_6" d="m615.71429,310" opacity="NaN" fill="#001220"/>
  <path d="m1180,435.71429c-1.42859,0 -1.42859,-1.42862 -5.71423,-5.71429c-4.28577,-4.28574 -5.71436,-7.14285 -5.71436,-10c0,-2.85715 0.49451,-5.29352 2.85718,-8.57144c3.7356,-5.1828 7.88391,-10.77313 12.85718,-17.14285c5.12634,-6.56567 7.66809,-13.66278 12.85706,-18.57141c3.74182,-3.53973 10.22754,-6.58661 14.28577,-8.57144c4.62695,-2.263 6.96936,-3.56207 11.42859,-4.28571c2.82019,-0.45764 5.71423,0 10,0c2.85706,0 7.04871,0.20612 10,1.42856c4.17358,1.72876 7.14282,4.28574 10,5.71429l1.42859,1.42856l1.42847,0" id="svg_7" stroke-opacity="0" stroke="#913a3a" fill="none"/>
  <path d="m1127.14282,244.28572c-1.42859,0 -2.89526,-0.32822 -4.28564,0c-3.10901,0.73392 -5.71436,2.85716 -8.57141,5.71428c-2.85718,2.85718 -7.7865,4.92931 -11.42859,8.57144c-3.64221,3.64218 -7.43835,6.87524 -10,10c-3.2655,3.98334 -3.45557,7.74121 -5.71436,10c-2.25867,2.25873 -3.84644,5.97998 -5.71423,8.57141c-2.36267,3.27792 -4.94116,5.27634 -5.71436,7.14285c-1.64014,3.9595 -1.76367,5.93179 -2.85706,8.57144c-0.77319,1.86652 0.59167,3.694 -1.42859,5.71429c-1.01013,1.01016 -1.42859,1.42856 -1.42859,2.85712c0,1.42859 1.01013,3.27557 0,4.28574c-1.01013,1.01016 -2.08398,3.84775 -2.85718,5.71426c-1.64014,3.9595 -1.42859,7.14288 -1.42859,10l0,2.85715l-1.42847,2.85715l0,1.42859" id="svg_9" stroke-opacity="0" stroke="#913a3a" fill="none"/>
 </g>
</svg>