<svg id="visual" viewBox="0 0 1980 800" width="1980" height="800" xmlns="http://www.w3.org/2000/svg" xmlns:xlink="http://www.w3.org/1999/xlink" version="1.1"><rect x="0" y="0" width="1980" height="800" fill="#001220"></rect><g transform="translate(1063.9609585675807 306.9044170689389)"><path d="M184 -336.1C227.3 -293.6 243.5 -221.8 330.2 -160.9C416.9 -100 573.9 -50 651.6 44.8C729.2 139.7 727.5 279.3 697.1 437.7C666.7 596 607.6 773 486.6 771.7C365.7 770.4 182.8 590.7 -8.6 605.5C-200 620.4 -400 829.8 -493.1 815.1C-586.2 800.3 -572.4 561.4 -607.2 388.2C-642.1 215 -725.5 107.5 -789.6 -37C-853.7 -181.5 -898.4 -363 -830.8 -479.5C-763.2 -596 -583.4 -647.4 -426.2 -624.2C-269 -600.9 -134.5 -503 -32.1 -447.4C70.3 -391.8 140.7 -378.6 184 -336.1" fill="none" stroke="#BB004B" stroke-width="6"></path></g></svg>