<svg id="visual" viewBox="0 0 1980 150" width="1980" height="150" xmlns="http://www.w3.org/2000/svg" xmlns:xlink="http://www.w3.org/1999/xlink" version="1.1"><path d="M0 18L132 18L132 24L264 24L264 37L396 37L396 36L528 36L528 22L660 22L660 19L792 19L792 22L924 22L924 40L1056 40L1056 16L1188 16L1188 28L1320 28L1320 22L1452 22L1452 25L1584 25L1584 19L1716 19L1716 22L1848 22L1848 27L1980 27L1980 36L1980 0L1980 0L1848 0L1848 0L1716 0L1716 0L1584 0L1584 0L1452 0L1452 0L1320 0L1320 0L1188 0L1188 0L1056 0L1056 0L924 0L924 0L792 0L792 0L660 0L660 0L528 0L528 0L396 0L396 0L264 0L264 0L132 0L132 0L0 0Z" fill="#001220"></path><path d="M0 84L132 84L132 61L264 61L264 85L396 85L396 62L528 62L528 66L660 66L660 58L792 58L792 78L924 78L924 88L1056 88L1056 67L1188 67L1188 79L1320 79L1320 55L1452 55L1452 62L1584 62L1584 76L1716 76L1716 75L1848 75L1848 79L1980 79L1980 91L1980 34L1980 25L1848 25L1848 20L1716 20L1716 17L1584 17L1584 23L1452 23L1452 20L1320 20L1320 26L1188 26L1188 14L1056 14L1056 38L924 38L924 20L792 20L792 17L660 17L660 20L528 20L528 34L396 34L396 35L264 35L264 22L132 22L132 16L0 16Z" fill="#00081a"></path><path d="M0 115L132 115L132 112L264 112L264 114L396 114L396 111L528 111L528 108L660 108L660 103L792 103L792 108L924 108L924 118L1056 118L1056 106L1188 106L1188 103L1320 103L1320 108L1452 108L1452 112L1584 112L1584 109L1716 109L1716 114L1848 114L1848 117L1980 117L1980 115L1980 89L1980 77L1848 77L1848 73L1716 73L1716 74L1584 74L1584 60L1452 60L1452 53L1320 53L1320 77L1188 77L1188 65L1056 65L1056 86L924 86L924 76L792 76L792 56L660 56L660 64L528 64L528 60L396 60L396 83L264 83L264 59L132 59L132 82L0 82Z" fill="#000000"></path><path d="M0 130L132 130L132 138L264 138L264 129L396 129L396 141L528 141L528 129L660 129L660 129L792 129L792 130L924 130L924 135L1056 135L1056 129L1188 129L1188 132L1320 132L1320 129L1452 129L1452 132L1584 132L1584 138L1716 138L1716 132L1848 132L1848 129L1980 129L1980 133L1980 113L1980 115L1848 115L1848 112L1716 112L1716 107L1584 107L1584 110L1452 110L1452 106L1320 106L1320 101L1188 101L1188 104L1056 104L1056 116L924 116L924 106L792 106L792 101L660 101L660 106L528 106L528 109L396 109L396 112L264 112L264 110L132 110L132 113L0 113Z" fill="#00081a"></path><path d="M0 151L132 151L132 151L264 151L264 151L396 151L396 151L528 151L528 151L660 151L660 151L792 151L792 151L924 151L924 151L1056 151L1056 151L1188 151L1188 151L1320 151L1320 151L1452 151L1452 151L1584 151L1584 151L1716 151L1716 151L1848 151L1848 151L1980 151L1980 151L1980 131L1980 127L1848 127L1848 130L1716 130L1716 136L1584 136L1584 130L1452 130L1452 127L1320 127L1320 130L1188 130L1188 127L1056 127L1056 133L924 133L924 128L792 128L792 127L660 127L660 127L528 127L528 139L396 139L396 127L264 127L264 136L132 136L132 128L0 128Z" fill="#001220"></path></svg>