<svg id="visual" viewBox="0 0 1980 150" width="1980" height="150" xmlns="http://www.w3.org/2000/svg" xmlns:xlink="http://www.w3.org/1999/xlink" version="1.1"><path d="M0 46L132 46L132 61L264 61L264 42L396 42L396 42L528 42L528 40L660 40L660 28L792 28L792 34L924 34L924 51L1056 51L1056 43L1188 43L1188 39L1320 39L1320 49L1452 49L1452 25L1584 25L1584 61L1716 61L1716 33L1848 33L1848 67L1980 67L1980 37L1980 0L1980 0L1848 0L1848 0L1716 0L1716 0L1584 0L1584 0L1452 0L1452 0L1320 0L1320 0L1188 0L1188 0L1056 0L1056 0L924 0L924 0L792 0L792 0L660 0L660 0L528 0L528 0L396 0L396 0L264 0L264 0L132 0L132 0L0 0Z" fill="#001220"></path><path d="M0 58L132 58L132 75L264 75L264 70L396 70L396 64L528 64L528 62L660 62L660 42L792 42L792 60L924 60L924 69L1056 69L1056 64L1188 64L1188 69L1320 69L1320 64L1452 64L1452 54L1584 54L1584 78L1716 78L1716 45L1848 45L1848 82L1980 82L1980 49L1980 35L1980 65L1848 65L1848 31L1716 31L1716 59L1584 59L1584 23L1452 23L1452 47L1320 47L1320 37L1188 37L1188 41L1056 41L1056 49L924 49L924 32L792 32L792 26L660 26L660 38L528 38L528 40L396 40L396 40L264 40L264 59L132 59L132 44L0 44Z" fill="#00081a"></path><path d="M0 108L132 108L132 109L264 109L264 104L396 104L396 117L528 117L528 104L660 104L660 96L792 96L792 117L924 117L924 111L1056 111L1056 106L1188 106L1188 120L1320 120L1320 104L1452 104L1452 102L1584 102L1584 117L1716 117L1716 115L1848 115L1848 120L1980 120L1980 109L1980 47L1980 80L1848 80L1848 43L1716 43L1716 76L1584 76L1584 52L1452 52L1452 62L1320 62L1320 67L1188 67L1188 62L1056 62L1056 67L924 67L924 58L792 58L792 40L660 40L660 60L528 60L528 62L396 62L396 68L264 68L264 73L132 73L132 56L0 56Z" fill="#000000"></path><path d="M0 133L132 133L132 141L264 141L264 133L396 133L396 132L528 132L528 130L660 130L660 133L792 133L792 133L924 133L924 133L1056 133L1056 139L1188 139L1188 139L1320 139L1320 139L1452 139L1452 133L1584 133L1584 136L1716 136L1716 132L1848 132L1848 139L1980 139L1980 133L1980 107L1980 118L1848 118L1848 113L1716 113L1716 115L1584 115L1584 100L1452 100L1452 102L1320 102L1320 118L1188 118L1188 104L1056 104L1056 109L924 109L924 115L792 115L792 94L660 94L660 102L528 102L528 115L396 115L396 102L264 102L264 107L132 107L132 106L0 106Z" fill="#00081a"></path><path d="M0 151L132 151L132 151L264 151L264 151L396 151L396 151L528 151L528 151L660 151L660 151L792 151L792 151L924 151L924 151L1056 151L1056 151L1188 151L1188 151L1320 151L1320 151L1452 151L1452 151L1584 151L1584 151L1716 151L1716 151L1848 151L1848 151L1980 151L1980 151L1980 131L1980 137L1848 137L1848 130L1716 130L1716 134L1584 134L1584 131L1452 131L1452 137L1320 137L1320 137L1188 137L1188 137L1056 137L1056 131L924 131L924 131L792 131L792 131L660 131L660 128L528 128L528 130L396 130L396 131L264 131L264 139L132 139L132 131L0 131Z" fill="#001220"></path></svg>