<svg id="visual" viewBox="0 0 1980 500" width="1980" height="500" xmlns="http://www.w3.org/2000/svg" xmlns:xlink="http://www.w3.org/1999/xlink" version="1.1"><path d="M0 385L47.2 378.5C94.3 372 188.7 359 283 347.2C377.3 335.3 471.7 324.7 566 309.5C660.3 294.3 754.7 274.7 848.8 269C943 263.3 1037 271.7 1131.2 258.7C1225.3 245.7 1319.7 211.3 1414 191.8C1508.3 172.3 1602.7 167.7 1697 184.7C1791.3 201.7 1885.7 240.3 1932.8 259.7L1980 279L1980 501L1932.8 501C1885.7 501 1791.3 501 1697 501C1602.7 501 1508.3 501 1414 501C1319.7 501 1225.3 501 1131.2 501C1037 501 943 501 848.8 501C754.7 501 660.3 501 566 501C471.7 501 377.3 501 283 501C188.7 501 94.3 501 47.2 501L0 501Z" fill="#050505" stroke-linecap="round" stroke-linejoin="miter"></path></svg>