<svg id="visual" viewBox="0 0 1980 800" width="1980" height="800" xmlns="http://www.w3.org/2000/svg" xmlns:xlink="http://www.w3.org/1999/xlink" version="1.1"><rect x="0" y="0" width="1980" height="800" fill="#001220"></rect><path d="M1298 0L1269.8 22.2C1241.7 44.3 1185.3 88.7 1128.3 133.2C1071.3 177.7 1013.7 222.3 960.8 266.8C908 311.3 860 355.7 856.8 400C853.7 444.3 895.3 488.7 949.7 533.2C1004 577.7 1071 622.3 1081.3 666.8C1091.7 711.3 1045.3 755.7 1022.2 777.8L999 800L0 800L0 777.8C0 755.7 0 711.3 0 666.8C0 622.3 0 577.7 0 533.2C0 488.7 0 444.3 0 400C0 355.7 0 311.3 0 266.8C0 222.3 0 177.7 0 133.2C0 88.7 0 44.3 0 22.2L0 0Z" fill="#fa9eff"></path><path d="M869 0L875.5 22.2C882 44.3 895 88.7 887 133.2C879 177.7 850 222.3 821.7 266.8C793.3 311.3 765.7 355.7 738 400C710.3 444.3 682.7 488.7 688.3 533.2C694 577.7 733 622.3 787.2 666.8C841.3 711.3 910.7 755.7 945.3 777.8L980 800L0 800L0 777.8C0 755.7 0 711.3 0 666.8C0 622.3 0 577.7 0 533.2C0 488.7 0 444.3 0 400C0 355.7 0 311.3 0 266.8C0 222.3 0 177.7 0 133.2C0 88.7 0 44.3 0 22.2L0 0Z" fill="#f77cfc"></path><path d="M547 0L524.2 22.2C501.3 44.3 455.7 88.7 434.5 133.2C413.3 177.7 416.7 222.3 415.3 266.8C414 311.3 408 355.7 421 400C434 444.3 466 488.7 497.8 533.2C529.7 577.7 561.3 622.3 587.2 666.8C613 711.3 633 755.7 643 777.8L653 800L0 800L0 777.8C0 755.7 0 711.3 0 666.8C0 622.3 0 577.7 0 533.2C0 488.7 0 444.3 0 400C0 355.7 0 311.3 0 266.8C0 222.3 0 177.7 0 133.2C0 88.7 0 44.3 0 22.2L0 0Z" fill="#e35de6"></path><path d="M242 0L255.7 22.2C269.3 44.3 296.7 88.7 313.2 133.2C329.7 177.7 335.3 222.3 314.5 266.8C293.7 311.3 246.3 355.7 240.5 400C234.7 444.3 270.3 488.7 282.3 533.2C294.3 577.7 282.7 622.3 301.3 666.8C320 711.3 369 755.7 393.5 777.8L418 800L0 800L0 777.8C0 755.7 0 711.3 0 666.8C0 622.3 0 577.7 0 533.2C0 488.7 0 444.3 0 400C0 355.7 0 311.3 0 266.8C0 222.3 0 177.7 0 133.2C0 88.7 0 44.3 0 22.2L0 0Z" fill="#bd47c0"></path></svg>