<svg xmlns="http://www.w3.org/2000/svg" version="1.1" xmlns:xlink="http://www.w3.org/1999/xlink" xmlns:svgjs="http://svgjs.com/svgjs" width="1980" height="800" preserveAspectRatio="none" viewBox="0 0 1980 800"><g mask="url(&quot;#SvgjsMask1498&quot;)" fill="none"><path d="M1097.79992785047 661.4466408914348L1245.9718136819192 712.4663126964064 1296.9914854868907 564.2944268649571 1148.8195996554416 513.2747550599856z" fill="rgba(28, 83, 142, 0.4)" class="triangle-float3"></path><path d="M1009.5049317517497 131.7482024489872L1057.4294310438338 310.60486873434377 1236.2860973291904 262.6803694422597 1188.3615980371062 83.82370315690312z" fill="rgba(28, 83, 142, 0.4)" class="triangle-float2"></path><path d="M1874.161,323.168C1896.692,323.446,1914.152,305.803,1925.261,286.199C1936.184,266.923,1941.702,243.278,1930.143,224.376C1918.95,206.072,1895.616,202.545,1874.161,202.64C1852.924,202.734,1829.886,206.613,1819.03,224.866C1807.997,243.417,1814.641,266.14,1825.199,284.965C1836.052,304.316,1851.976,322.894,1874.161,323.168" fill="rgba(28, 83, 142, 0.4)" class="triangle-float2"></path><path d="M1345.1985238659022-10.777645543642388L1367.757625944127 203.85787338859953 1582.393144876369 181.29877131037463 1559.834042798144-33.33674762186728z" fill="rgba(28, 83, 142, 0.4)" class="triangle-float2"></path><path d="M102.811,455.156C128.958,454.985,155.689,445.145,168.134,422.148C180.124,399.991,171.468,373.879,158.474,352.296C145.987,331.555,127.014,314.247,102.811,313.648C77.664,313.026,55.278,327.952,42.163,349.418C28.407,371.933,22.863,400.125,35.991,423.012C49.171,445.991,76.321,455.329,102.811,455.156" fill="rgba(28, 83, 142, 0.4)" class="triangle-float2"></path><path d="M760.614,802.385C797.708,799.848,820.162,765.984,838.999,733.928C858.206,701.243,880.264,663.365,861.749,630.283C842.994,596.772,798.999,592.745,760.614,593.873C724.702,594.928,688.925,605.86,669.274,635.937C647.69,668.972,642.177,711.498,661.161,746.092C680.803,781.885,719.881,805.171,760.614,802.385" fill="rgba(28, 83, 142, 0.4)" class="triangle-float3"></path><path d="M154.8868035345083 633.0761715938581L194.05524084490204 769.6727456128021 330.6518148638461 730.5043083024084 291.4833775534523 593.9077342834644z" fill="rgba(28, 83, 142, 0.4)" class="triangle-float2"></path><path d="M1189.089557533096 496.47862016795517L1028.5805812038043 421.63205530298706 953.7340163388361 582.1410316322788 1114.242992668128 656.987596497247z" fill="rgba(28, 83, 142, 0.4)" class="triangle-float2"></path><path d="M62.010757920306375 261.7900367189854L158.24178674471278 351.5269228522924 247.97867287801978 255.295894027886 151.74764405361339 165.559007894579z" fill="rgba(28, 83, 142, 0.4)" class="triangle-float1"></path></g><defs><mask id="SvgjsMask1498"><rect width="1980" height="800" fill="#ffffff"></rect></mask><style>
            @keyframes float1 {
                0%{transform: translate(0, 0)}
                50%{transform: translate(-10px, 0)}
                100%{transform: translate(0, 0)}
            }

            .triangle-float1 {
                animation: float1 5s infinite;
            }

            @keyframes float2 {
                0%{transform: translate(0, 0)}
                50%{transform: translate(-5px, -5px)}
                100%{transform: translate(0, 0)}
            }

            .triangle-float2 {
                animation: float2 4s infinite;
            }

            @keyframes float3 {
                0%{transform: translate(0, 0)}
                50%{transform: translate(0, -10px)}
                100%{transform: translate(0, 0)}
            }

            .triangle-float3 {
                animation: float3 6s infinite;
            }
        </style></defs></svg>