<svg width="1980.0000000000002" height="800" xmlns="http://www.w3.org/2000/svg" version="1.1">

 <g>
  <title>Layer 1</title>
  <path stroke-dasharray="2,2" id="svg_1" d="m-0.00001,0.00001l1980,0l0,800l-1980,0l0,-800z" opacity="undefined" fill="#001220"/>
  <path id="svg_6" d="m615.71429,310" opacity="NaN" fill="#001220"/>
  <path d="m1180,435.71429c-1.42859,0 -1.42859,-1.42862 -5.71423,-5.71429c-4.28577,-4.28574 -5.71436,-7.14285 -5.71436,-10c0,-2.85715 0.49451,-5.29352 2.85718,-8.57144c3.7356,-5.1828 7.88391,-10.77313 12.85718,-17.14285c5.12634,-6.56567 7.66809,-13.66278 12.85706,-18.57141c3.74182,-3.53973 10.22754,-6.58661 14.28577,-8.57144c4.62695,-2.263 6.96936,-3.56207 11.42859,-4.28571c2.82019,-0.45764 5.71423,0 10,0c2.85706,0 7.04871,0.20612 10,1.42856c4.17358,1.72876 7.14282,4.28574 10,5.71429l1.42859,1.42856l1.42847,0" id="svg_7" stroke-opacity="0" stroke="#913a3a" fill="none"/>
  <path d="m1127.14282,244.28572c-1.42859,0 -2.89526,-0.32822 -4.28564,0c-3.10901,0.73392 -5.71436,2.85716 -8.57141,5.71428c-2.85718,2.85718 -7.7865,4.92931 -11.42859,8.57144c-3.64221,3.64218 -7.43835,6.87524 -10,10c-3.2655,3.98334 -3.45557,7.74121 -5.71436,10c-2.25867,2.25873 -3.84644,5.97998 -5.71423,8.57141c-2.36267,3.27792 -4.94116,5.27634 -5.71436,7.14285c-1.64014,3.9595 -1.76367,5.93179 -2.85706,8.57144c-0.77319,1.86652 0.59167,3.694 -1.42859,5.71429c-1.01013,1.01016 -1.42859,1.42856 -1.42859,2.85712c0,1.42859 1.01013,3.27557 0,4.28574c-1.01013,1.01016 -2.08398,3.84775 -2.85718,5.71426c-1.64014,3.9595 -1.42859,7.14288 -1.42859,10l0,2.85715l-1.42847,2.85715l0,1.42859" id="svg_9" stroke-opacity="0" stroke="#913a3a" fill="none"/>
 </g>
</svg>