<svg xmlns="http://www.w3.org/2000/svg" version="1.1" xmlns:xlink="http://www.w3.org/1999/xlink" xmlns:svgjs="http://svgjs.com/svgjs" width="1980" height="500" preserveAspectRatio="none" viewBox="0 0 1980 500"><g mask="url(&quot;#SvgjsMask1023&quot;)" fill="none"><path d="M295.07 584.92C454.85 584.55 609.98 478.49 925.27 478.48 1240.57 478.47 1240.37 540.98 1555.48 540.98 1870.58 540.98 2027.36 478.56 2185.68 478.48" stroke="rgba(51,121,194,0.58)" stroke-width="2"></path><path d="M774.56 573.23C919.92 548.75 885.28 192.11 1224.29 191.94 1563.31 191.77 1890.71 434.76 2123.76 436.94" stroke="rgba(51,121,194,0.58)" stroke-width="2"></path><path d="M1048.97 538.2C1188.28 535.97 1299.97 367.91 1578.24 363.61 1856.52 359.31 1968.56 195.68 2107.52 193.61" stroke="rgba(51,121,194,0.58)" stroke-width="2"></path><path d="M903.97 500.64C1048.31 447.34 986.96 17.08 1280.73 13.97 1574.5 10.86 1841.4 178.01 2034.24 178.97" stroke="rgba(51,121,194,0.58)" stroke-width="2"></path><path d="M1215.36 552.4C1396.62 520.81 1484.16 74.52 1772.82 71.9 2061.49 69.28 2183.86 249.69 2330.29 251.9" stroke="rgba(51,121,194,0.58)" stroke-width="2"></path></g><defs><mask id="SvgjsMask1023"><rect width="1980" height="500" fill="#ffffff"></rect></mask></defs></svg>