<svg id="visual" viewBox="0 0 1980 800" width="1980" height="800" xmlns="http://www.w3.org/2000/svg" xmlns:xlink="http://www.w3.org/1999/xlink" version="1.1"><rect x="0" y="0" width="1980" height="800" fill="#001220"></rect><path d="M0 486L33 478C66 470 132 454 198 428.7C264 403.3 330 368.7 396 385.7C462 402.7 528 471.3 594 469.3C660 467.3 726 394.7 792 377.2C858 359.7 924 397.3 990 418.2C1056 439 1122 443 1188 433.3C1254 423.7 1320 400.3 1386 387.7C1452 375 1518 373 1584 366.5C1650 360 1716 349 1782 371.3C1848 393.7 1914 449.3 1947 477.2L1980 505L1980 0L1947 0C1914 0 1848 0 1782 0C1716 0 1650 0 1584 0C1518 0 1452 0 1386 0C1320 0 1254 0 1188 0C1122 0 1056 0 990 0C924 0 858 0 792 0C726 0 660 0 594 0C528 0 462 0 396 0C330 0 264 0 198 0C132 0 66 0 33 0L0 0Z" fill="#5400e6"></path><path d="M0 254L33 255.3C66 256.7 132 259.3 198 289.5C264 319.7 330 377.3 396 397C462 416.7 528 398.3 594 380.3C660 362.3 726 344.7 792 354.2C858 363.7 924 400.3 990 389.7C1056 379 1122 321 1188 302.8C1254 284.7 1320 306.3 1386 324.7C1452 343 1518 358 1584 342.8C1650 327.7 1716 282.3 1782 277C1848 271.7 1914 306.3 1947 323.7L1980 341L1980 0L1947 0C1914 0 1848 0 1782 0C1716 0 1650 0 1584 0C1518 0 1452 0 1386 0C1320 0 1254 0 1188 0C1122 0 1056 0 990 0C924 0 858 0 792 0C726 0 660 0 594 0C528 0 462 0 396 0C330 0 264 0 198 0C132 0 66 0 33 0L0 0Z" fill="#175bfb"></path><path d="M0 290L33 292.5C66 295 132 300 198 291.3C264 282.7 330 260.3 396 235.5C462 210.7 528 183.3 594 188.7C660 194 726 232 792 257.8C858 283.7 924 297.3 990 295.8C1056 294.3 1122 277.7 1188 269.8C1254 262 1320 263 1386 263.2C1452 263.3 1518 262.7 1584 268.7C1650 274.7 1716 287.3 1782 272.5C1848 257.7 1914 215.3 1947 194.2L1980 173L1980 0L1947 0C1914 0 1848 0 1782 0C1716 0 1650 0 1584 0C1518 0 1452 0 1386 0C1320 0 1254 0 1188 0C1122 0 1056 0 990 0C924 0 858 0 792 0C726 0 660 0 594 0C528 0 462 0 396 0C330 0 264 0 198 0C132 0 66 0 33 0L0 0Z" fill="#0087ff"></path><path d="M0 95L33 106C66 117 132 139 198 154.3C264 169.7 330 178.3 396 166C462 153.7 528 120.3 594 119.7C660 119 726 151 792 159C858 167 924 151 990 137.3C1056 123.7 1122 112.3 1188 117.2C1254 122 1320 143 1386 148.3C1452 153.7 1518 143.3 1584 126.7C1650 110 1716 87 1782 94.5C1848 102 1914 140 1947 159L1980 178L1980 0L1947 0C1914 0 1848 0 1782 0C1716 0 1650 0 1584 0C1518 0 1452 0 1386 0C1320 0 1254 0 1188 0C1122 0 1056 0 990 0C924 0 858 0 792 0C726 0 660 0 594 0C528 0 462 0 396 0C330 0 264 0 198 0C132 0 66 0 33 0L0 0Z" fill="#00aaff"></path></svg>