<svg id="visual" viewBox="0 0 1980 100" width="1980" height="100" xmlns="http://www.w3.org/2000/svg" xmlns:xlink="http://www.w3.org/1999/xlink" version="1.1"><path d="M0 70L990 70L990 70L1980 70L1980 70L1980 0L1980 0L990 0L990 0L0 0Z" fill="#560090"></path><path d="M0 53L990 53L990 53L1980 53L1980 53L1980 0L1980 0L990 0L990 0L0 0Z" fill="#1b2175"></path><path d="M0 36L990 36L990 36L1980 36L1980 36L1980 0L1980 0L990 0L990 0L0 0Z" fill="#001f4d"></path><path d="M0 19L990 19L990 19L1980 19L1980 19L1980 0L1980 0L990 0L990 0L0 0Z" fill="#001220"></path></svg>