<svg id="visual" viewBox="0 0 1980 500" width="1980" height="500" xmlns="http://www.w3.org/2000/svg" xmlns:xlink="http://www.w3.org/1999/xlink" version="1.1"><path d="M0 29L82.5 67.5C165 106 330 183 495 199.3C660 215.7 825 171.3 990 151.8C1155 132.3 1320 137.7 1485 175.7C1650 213.7 1815 284.3 1897.5 319.7L1980 355L1980 501L1897.5 501C1815 501 1650 501 1485 501C1320 501 1155 501 990 501C825 501 660 501 495 501C330 501 165 501 82.5 501L0 501Z" fill="#000000" stroke-linecap="round" stroke-linejoin="miter"></path></svg>