<svg xmlns="http://www.w3.org/2000/svg" version="1.1" xmlns:xlink="http://www.w3.org/1999/xlink" xmlns:svgjs="http://svgjs.com/svgjs" width="1980" height="500" preserveAspectRatio="none" viewBox="0 0 1980 500"><g mask="url(&quot;#SvgjsMask1433&quot;)" fill="none"><path d="M1402.1428981171782 187.29898259235148L1514.4725837691785 244.53381616575479 1571.7074173425817 132.20413051375454 1459.3777316905814 74.96929694035124z" fill="rgba(28, 83, 142, 0.4)" class="triangle-float1"></path><path d="M370.164,436.23C413.127,438.226,457.416,423.972,480.257,387.53C504.396,349.017,503.245,299.618,480.429,260.306C457.702,221.146,415.438,197.307,370.164,197.838C325.782,198.359,284.763,223.461,264.29,262.842C245.196,299.569,254.898,342.733,276.47,378.062C297.003,411.689,330.806,434.401,370.164,436.23" fill="rgba(28, 83, 142, 0.4)" class="triangle-float3"></path><path d="M1867.958,293.684C1884.797,293.832,1902.54,288.799,1910.858,274.157C1919.101,259.648,1914.14,241.987,1905.404,227.769C1897.142,214.322,1883.724,205.045,1867.958,204.335C1850.813,203.563,1833.036,209.413,1824.18,224.114C1815.083,239.216,1816.955,258.493,1826.344,273.415C1835.151,287.412,1851.422,293.539,1867.958,293.684" fill="rgba(28, 83, 142, 0.4)" class="triangle-float1"></path><path d="M693.38,616.278C736.953,615.455,782.617,606.226,806.024,569.464C830.979,530.271,829.289,479.613,805.992,439.413C782.76,399.326,739.678,373.333,693.38,375.096C649.695,376.76,617.334,410.055,594.703,447.458C570.986,486.656,549.993,534.312,573.113,573.866C596.104,613.2,647.827,617.139,693.38,616.278" fill="rgba(28, 83, 142, 0.4)" class="triangle-float3"></path><path d="M114.437,260.829C135.559,260.868,154.585,248.369,164.82,229.893C174.746,211.976,173.212,190.518,163.325,172.579C153.046,153.929,135.732,138.5,114.437,138.479C93.113,138.458,75.641,153.788,65.383,172.482C55.547,190.408,54.452,211.83,64.378,229.706C74.601,248.117,93.378,260.79,114.437,260.829" fill="rgba(28, 83, 142, 0.4)" class="triangle-float1"></path></g><defs><mask id="SvgjsMask1433"><rect width="1980" height="500" fill="#ffffff"></rect></mask><style>
            @keyframes float1 {
                0%{transform: translate(0, 0)}
                50%{transform: translate(-10px, 0)}
                100%{transform: translate(0, 0)}
            }

            .triangle-float1 {
                animation: float1 5s infinite;
            }

            @keyframes float2 {
                0%{transform: translate(0, 0)}
                50%{transform: translate(-5px, -5px)}
                100%{transform: translate(0, 0)}
            }

            .triangle-float2 {
                animation: float2 4s infinite;
            }

            @keyframes float3 {
                0%{transform: translate(0, 0)}
                50%{transform: translate(0, -10px)}
                100%{transform: translate(0, 0)}
            }

            .triangle-float3 {
                animation: float3 6s infinite;
            }
        </style></defs></svg>